  0
SECTION
  2
HEADER
  9
$ACADVER
  1
AC1009
  0
ENDSEC
  0
SECTION
  2
TABLES
  0
TABLE
  2
LAYER
  70
2
  0
LAYER
  2
Layer_0
  70
0
  62
7
  6
CONTINUOUS
  0
LAYER
  2
Layer_3
  70
0
  62
3
  6
CONTINUOUS
  0
ENDTAB
  0
ENDSEC
  0
SECTION
  2
ENTITIES
  0
CIRCLE
  5
90
  8
Layer_0
  62
7
  10
278.21768
  20
122.31557
  30
0
  40
6
  0
CIRCLE
  5
90
  8
Layer_0
  62
7
  10
293.25034
  20
122.25043
  30
0
  40
6
  0
CIRCLE
  5
90
  8
Layer_0
  62
7
  10
308.25034
  20
122.25043
  30
0
  40
6
  0
POLYLINE
  5
90
  8
Layer_0
  62
7
  70
1
  66
1
  10
0
  20
0
  30
0
  0
VERTEX
  5
90
  8
Layer_0
  10
328
  20
115.01367
  0
VERTEX
  5
91
  8
Layer_0
  10
318
  20
115.01367
  0
VERTEX
  5
92
  8
Layer_0
  10
318
  20
126.18867
  0
VERTEX
  5
93
  8
Layer_0
  10
328
  20
126.18867
  0
SEQEND
  0
CIRCLE
  5
95
  8
Layer_0
  62
7
  10
278.21768
  20
122.31557
  30
0
  40
0.49999994
  0
CIRCLE
  5
95
  8
Layer_0
  62
7
  10
293.21802
  20
122.31601
  30
0
  40
0.49999994
  0
CIRCLE
  5
95
  8
Layer_0
  62
7
  10
308.21802
  20
122.31601
  30
0
  40
0.49999994
  0
CIRCLE
  5
95
  8
Layer_0
  62
7
  10
323
  20
120.60117
  30
0
  40
0.49999994
  0
POLYLINE
  5
95
  8
Layer_0
  62
7
  70
1
  66
1
  10
0
  20
0
  30
0
  0
VERTEX
  5
95
  8
Layer_0
  10
349.5
  20
106
  0
VERTEX
  5
96
  8
Layer_0
  10
252.5
  20
106
  0
VERTEX
  5
97
  8
Layer_0
  10
252.5
  20
146
  0
VERTEX
  5
98
  8
Layer_0
  10
349.5
  20
146
  0
SEQEND
  0
CIRCLE
  5
9a
  8
Layer_0
  62
7
  10
256
  20
142.5
  30
0
  40
1.5
  0
CIRCLE
  5
9a
  8
Layer_0
  62
7
  10
345.5
  20
142.5
  30
0
  40
1.5
  0
CIRCLE
  5
9a
  8
Layer_0
  62
7
  10
256
  20
109.5
  30
0
  40
1.5
  0
CIRCLE
  5
9a
  8
Layer_0
  62
7
  10
345.5
  20
109.5
  30
0
  40
1.5
  0
POLYLINE
  5
9a
  8
Layer_3
  62
3
  70
1
  66
1
  10
0
  20
0
  30
0
  0
VERTEX
  5
9a
  8
Layer_3
  10
281.03418
  20
135.16141
  42
0.33287677
  0
VERTEX
  5
9b
  8
Layer_3
  10
282.46143
  20
136.47781
  42
0.23698442
  0
VERTEX
  5
9c
  8
Layer_3
  10
282.05176
  20
138.33084
  42
0.38619958
  0
VERTEX
  5
9d
  8
Layer_3
  10
279.69629
  20
138.46512
  42
0.22523472
  0
VERTEX
  5
9e
  8
Layer_3
  10
279.09375
  20
136.95193
  42
0.26104342
  0
VERTEX
  5
9f
  8
Layer_3
  10
279.90186
  20
135.39188
  42
0.16839167
  0
SEQEND
  0
POLYLINE
  5
a1
  8
Layer_3
  62
3
  70
1
  66
1
  10
0
  20
0
  30
0
  0
VERTEX
  5
a1
  8
Layer_3
  10
275.74805
  20
138.78787
  0
VERTEX
  5
a2
  8
Layer_3
  10
275.26465
  20
138.78787
  42
0.0081701387
  0
VERTEX
  5
a3
  8
Layer_3
  10
274.19434
  20
135.89481
  0
VERTEX
  5
a4
  8
Layer_3
  10
274.10498
  20
135.60184
  0
VERTEX
  5
a5
  8
Layer_3
  10
274.02002
  20
135.88504
  42
0.00776489
  0
VERTEX
  5
a6
  8
Layer_3
  10
272.98682
  20
138.78787
  0
VERTEX
  5
a7
  8
Layer_3
  10
272.47412
  20
138.78787
  0
VERTEX
  5
a8
  8
Layer_3
  10
273.86084
  20
135.20877
  0
VERTEX
  5
a9
  8
Layer_3
  10
274.34668
  20
135.20877
  0
SEQEND
  0
POLYLINE
  5
ab
  8
Layer_3
  62
3
  70
1
  66
1
  10
0
  20
0
  30
0
  0
VERTEX
  5
ab
  8
Layer_3
  10
276.68555
  20
136.83475
  0
VERTEX
  5
ac
  8
Layer_3
  10
278.36523
  20
136.83475
  0
VERTEX
  5
ad
  8
Layer_3
  10
278.36523
  20
137.25711
  0
VERTEX
  5
ae
  8
Layer_3
  10
276.68555
  20
137.25711
  0
VERTEX
  5
af
  8
Layer_3
  10
276.68555
  20
138.36551
  0
VERTEX
  5
b0
  8
Layer_3
  10
278.62646
  20
138.36551
  0
VERTEX
  5
b1
  8
Layer_3
  10
278.62646
  20
138.78787
  0
VERTEX
  5
b2
  8
Layer_3
  10
276.21191
  20
138.78787
  0
VERTEX
  5
b3
  8
Layer_3
  10
276.21191
  20
135.20877
  0
VERTEX
  5
b4
  8
Layer_3
  10
276.68555
  20
135.20877
  0
SEQEND
  0
POLYLINE
  5
b6
  8
Layer_3
  62
3
  70
1
  66
1
  10
0
  20
0
  30
0
  0
VERTEX
  5
b6
  8
Layer_3
  10
280.55127
  20
135.57645
  42
-0.10849042
  0
VERTEX
  5
b7
  8
Layer_3
  10
280.11475
  20
135.76248
  42
-0.20963961
  0
VERTEX
  5
b8
  8
Layer_3
  10
279.60352
  20
136.63846
  42
-0.15969808
  0
VERTEX
  5
b9
  8
Layer_3
  10
279.78564
  20
137.89676
  42
-0.36621096
  0
VERTEX
  5
ba
  8
Layer_3
  10
281.30176
  20
138.34256
  42
-0.25234911
  0
VERTEX
  5
bb
  8
Layer_3
  10
281.99121
  20
137.40506
  42
-0.16805727
  0
VERTEX
  5
bc
  8
Layer_3
  10
281.83398
  20
136.13651
  42
-0.32880172
  0
SEQEND
  0
POLYLINE
  5
be
  8
Layer_3
  62
3
  70
1
  66
1
  10
0
  20
0
  30
0
  0
VERTEX
  5
be
  8
Layer_3
  10
289.96533
  20
135.16403
  42
0.13313263
  0
VERTEX
  5
bf
  8
Layer_3
  10
290.64258
  20
135.45114
  42
0.16660024
  0
VERTEX
  5
c0
  8
Layer_3
  10
291.17822
  20
136.34128
  0
VERTEX
  5
c1
  8
Layer_3
  10
290.70459
  20
136.46091
  0
VERTEX
  5
c2
  8
Layer_3
  10
290.64453
  20
136.24899
  42
-0.41077855
  0
VERTEX
  5
c3
  8
Layer_3
  10
289.3418
  20
135.59225
  42
-0.28586384
  0
VERTEX
  5
c4
  8
Layer_3
  10
288.57715
  20
136.40524
  42
-0.20516186
  0
VERTEX
  5
c5
  8
Layer_3
  10
288.76855
  20
138.01169
  42
-0.34147102
  0
VERTEX
  5
c6
  8
Layer_3
  10
290.16357
  20
138.34079
  42
-0.20506026
  0
VERTEX
  5
c7
  8
Layer_3
  10
290.65088
  20
137.69382
  0
VERTEX
  5
c8
  8
Layer_3
  10
291.11719
  20
137.80368
  42
0.26294786
  0
VERTEX
  5
c9
  8
Layer_3
  10
290.19824
  20
138.7778
  42
0.31385973
  0
VERTEX
  5
ca
  8
Layer_3
  10
288.34619
  20
138.19333
  42
0.30062797
  0
VERTEX
  5
cb
  8
Layer_3
  10
288.43604
  20
135.66891
  42
0.20566612
  0
VERTEX
  5
cc
  8
Layer_3
  10
289.42041
  20
135.15964
  42
0.061934408
  0
SEQEND
  0
POLYLINE
  5
ce
  8
Layer_3
  62
3
  70
1
  66
1
  10
0
  20
0
  30
0
  0
VERTEX
  5
ce
  8
Layer_3
  10
292.25391
  20
136.29001
  0
VERTEX
  5
cf
  8
Layer_3
  10
293.75049
  20
136.29001
  0
VERTEX
  5
d0
  8
Layer_3
  10
294.16797
  20
135.20602
  0
VERTEX
  5
d1
  8
Layer_3
  10
294.70752
  20
135.20602
  0
VERTEX
  5
d2
  8
Layer_3
  10
293.24268
  20
138.78513
  0
VERTEX
  5
d3
  8
Layer_3
  10
292.73242
  20
138.78513
  0
VERTEX
  5
d4
  8
Layer_3
  10
291.35791
  20
135.20602
  0
VERTEX
  5
d5
  8
Layer_3
  10
291.86084
  20
135.20602
  0
SEQEND
  0
POLYLINE
  5
d7
  8
Layer_3
  62
3
  70
1
  66
1
  10
0
  20
0
  30
0
  0
VERTEX
  5
d7
  8
Layer_3
  10
295.58203
  20
136.79538
  0
VERTEX
  5
d8
  8
Layer_3
  10
296.13135
  20
136.79538
  42
-0.28554055
  0
VERTEX
  5
d9
  8
Layer_3
  10
296.85156
  20
136.44382
  42
-0.02486945
  0
VERTEX
  5
da
  8
Layer_3
  10
297.66699
  20
135.20602
  0
VERTEX
  5
db
  8
Layer_3
  10
298.2627
  20
135.20602
  0
VERTEX
  5
dc
  8
Layer_3
  10
297.64014
  20
136.18015
  42
0.11821736
  0
VERTEX
  5
dd
  8
Layer_3
  10
297.12695
  20
136.7446
  0
VERTEX
  5
de
  8
Layer_3
  10
296.96143
  20
136.83444
  0
VERTEX
  5
df
  8
Layer_3
  10
297.20215
  20
136.88181
  42
0.40941725
  0
VERTEX
  5
e0
  8
Layer_3
  10
297.96045
  20
137.95309
  42
0.37282088
  0
VERTEX
  5
e1
  8
Layer_3
  10
297.11621
  20
138.7612
  42
0.032861648
  0
VERTEX
  5
e2
  8
Layer_3
  10
296.69531
  20
138.78513
  0
VERTEX
  5
e3
  8
Layer_3
  10
295.1084
  20
138.78513
  0
VERTEX
  5
e4
  8
Layer_3
  10
295.1084
  20
135.20602
  0
VERTEX
  5
e5
  8
Layer_3
  10
295.58203
  20
135.20602
  0
SEQEND
  0
POLYLINE
  5
e7
  8
Layer_3
  62
3
  70
1
  66
1
  10
0
  20
0
  30
0
  0
VERTEX
  5
e7
  8
Layer_3
  10
292.39063
  20
136.67575
  0
VERTEX
  5
e8
  8
Layer_3
  10
292.78369
  20
137.72556
  42
0.038461517
  0
VERTEX
  5
e9
  8
Layer_3
  10
292.97656
  20
138.40915
  0
VERTEX
  5
ea
  8
Layer_3
  10
293.02344
  20
138.25388
  42
0.014520063
  0
VERTEX
  5
eb
  8
Layer_3
  10
293.604
  20
136.67575
  0
SEQEND
  0
POLYLINE
  5
ed
  8
Layer_3
  62
3
  70
1
  66
1
  10
0
  20
0
  30
0
  0
VERTEX
  5
ed
  8
Layer_3
  10
295.58203
  20
137.20554
  0
VERTEX
  5
ee
  8
Layer_3
  10
295.58203
  20
138.38962
  0
VERTEX
  5
ef
  8
Layer_3
  10
296.71484
  20
138.38962
  42
-0.18027637
  0
VERTEX
  5
f0
  8
Layer_3
  10
297.29688
  20
138.22604
  42
-0.36918531
  0
VERTEX
  5
f1
  8
Layer_3
  10
297.38623
  20
137.48727
  42
-0.24722026
  0
VERTEX
  5
f2
  8
Layer_3
  10
296.75342
  20
137.20993
  42
-0.014327872
  0
SEQEND
  0
POLYLINE
  5
f4
  8
Layer_3
  62
3
  70
1
  66
1
  10
0
  20
0
  30
0
  0
VERTEX
  5
f4
  8
Layer_3
  10
304.22192
  20
136.89746
  0
VERTEX
  5
f5
  8
Layer_3
  10
306.08228
  20
136.89746
  0
VERTEX
  5
f6
  8
Layer_3
  10
306.08228
  20
135.21045
  0
VERTEX
  5
f7
  8
Layer_3
  10
306.55591
  20
135.21045
  0
VERTEX
  5
f8
  8
Layer_3
  10
306.55591
  20
138.78955
  0
VERTEX
  5
f9
  8
Layer_3
  10
306.08228
  20
138.78955
  0
VERTEX
  5
fa
  8
Layer_3
  10
306.08228
  20
137.31982
  0
VERTEX
  5
fb
  8
Layer_3
  10
304.22192
  20
137.31982
  0
VERTEX
  5
fc
  8
Layer_3
  10
304.22192
  20
138.78955
  0
VERTEX
  5
fd
  8
Layer_3
  10
303.74829
  20
138.78955
  0
VERTEX
  5
fe
  8
Layer_3
  10
303.74829
  20
135.21045
  0
VERTEX
  5
ff
  8
Layer_3
  10
304.22192
  20
135.21045
  0
SEQEND
  0
POLYLINE
  5
101
  8
Layer_3
  62
3
  70
1
  66
1
  10
0
  20
0
  30
0
  0
VERTEX
  5
101
  8
Layer_3
  10
310.0144
  20
135.63281
  0
VERTEX
  5
102
  8
Layer_3
  10
307.81714
  20
135.63281
  0
VERTEX
  5
103
  8
Layer_3
  10
307.81714
  20
136.85107
  0
VERTEX
  5
104
  8
Layer_3
  10
309.79712
  20
136.85107
  0
VERTEX
  5
105
  8
Layer_3
  10
309.79712
  20
137.271
  0
VERTEX
  5
106
  8
Layer_3
  10
307.81714
  20
137.271
  0
VERTEX
  5
107
  8
Layer_3
  10
307.81714
  20
138.36719
  0
VERTEX
  5
108
  8
Layer_3
  10
309.9314
  20
138.36719
  0
VERTEX
  5
109
  8
Layer_3
  10
309.9314
  20
138.78955
  0
VERTEX
  5
10a
  8
Layer_3
  10
307.34351
  20
138.78955
  0
VERTEX
  5
10b
  8
Layer_3
  10
307.34351
  20
135.21045
  0
VERTEX
  5
10c
  8
Layer_3
  10
310.0144
  20
135.21045
  0
SEQEND
  0
POLYLINE
  5
10e
  8
Layer_3
  62
3
  70
1
  66
1
  10
0
  20
0
  30
0
  0
VERTEX
  5
10e
  8
Layer_3
  10
312.06763
  20
138.36719
  0
VERTEX
  5
10f
  8
Layer_3
  10
313.25171
  20
138.36719
  0
VERTEX
  5
110
  8
Layer_3
  10
313.25171
  20
138.78955
  0
VERTEX
  5
111
  8
Layer_3
  10
310.41479
  20
138.78955
  0
VERTEX
  5
112
  8
Layer_3
  10
310.41479
  20
138.36719
  0
VERTEX
  5
113
  8
Layer_3
  10
311.59399
  20
138.36719
  0
VERTEX
  5
114
  8
Layer_3
  10
311.59399
  20
135.21045
  0
VERTEX
  5
115
  8
Layer_3
  10
312.06763
  20
135.21045
  0
SEQEND
  0
POLYLINE
  5
117
  8
Layer_3
  62
3
  70
1
  66
1
  10
0
  20
0
  30
0
  0
VERTEX
  5
117
  8
Layer_3
  10
330.69604
  20
109.16402
  42
0.27698871
  0
VERTEX
  5
118
  8
Layer_3
  10
331.82007
  20
110.06686
  0
VERTEX
  5
119
  8
Layer_3
  10
331.90942
  20
110.34127
  0
VERTEX
  5
11a
  8
Layer_3
  10
331.43579
  20
110.4609
  0
VERTEX
  5
11b
  8
Layer_3
  10
331.37573
  20
110.24899
  42
-0.41050961
  0
VERTEX
  5
11c
  8
Layer_3
  10
330.07251
  20
109.59225
  42
-0.28630016
  0
VERTEX
  5
11d
  8
Layer_3
  10
329.30835
  20
110.40524
  42
-0.20526227
  0
VERTEX
  5
11e
  8
Layer_3
  10
329.49927
  20
112.01168
  42
-0.34147115
  0
VERTEX
  5
11f
  8
Layer_3
  10
330.89429
  20
112.34078
  42
-0.20476474
  0
VERTEX
  5
120
  8
Layer_3
  10
331.38208
  20
111.69381
  0
VERTEX
  5
121
  8
Layer_3
  10
331.84839
  20
111.80367
  42
0.26280073
  0
VERTEX
  5
122
  8
Layer_3
  10
330.92896
  20
112.77779
  42
0.31386104
  0
VERTEX
  5
123
  8
Layer_3
  10
329.0769
  20
112.19332
  42
0.30031675
  0
VERTEX
  5
124
  8
Layer_3
  10
329.16675
  20
109.66891
  42
0.20579342
  0
VERTEX
  5
125
  8
Layer_3
  10
330.15161
  20
109.15963
  42
0.061997771
  0
SEQEND
  0
POLYLINE
  5
127
  8
Layer_3
  62
3
  70
1
  66
1
  10
0
  20
0
  30
0
  0
VERTEX
  5
127
  8
Layer_3
  10
316.40894
  20
112.79977
  0
VERTEX
  5
128
  8
Layer_3
  10
316.12573
  20
112.79977
  0
VERTEX
  5
129
  8
Layer_3
  10
316.05835
  20
112.68307
  42
-0.13070397
  0
VERTEX
  5
12a
  8
Layer_3
  10
315.09058
  20
111.90133
  0
VERTEX
  5
12b
  8
Layer_3
  10
315.09058
  20
111.47652
  42
0.087312621
  0
VERTEX
  5
12c
  8
Layer_3
  10
315.96948
  20
112.00631
  0
VERTEX
  5
12d
  8
Layer_3
  10
315.96948
  20
109.20602
  0
VERTEX
  5
12e
  8
Layer_3
  10
316.40894
  20
109.20602
  0
SEQEND
  0
POLYLINE
  5
130
  8
Layer_3
  62
3
  70
1
  66
1
  10
0
  20
0
  30
0
  0
VERTEX
  5
130
  8
Layer_3
  10
319.86304
  20
109.62838
  0
VERTEX
  5
131
  8
Layer_3
  10
318.10767
  20
109.62838
  42
-0.077716594
  0
VERTEX
  5
132
  8
Layer_3
  10
318.80103
  20
110.31686
  0
VERTEX
  5
133
  8
Layer_3
  10
319.02124
  20
110.50631
  42
0.10667324
  0
VERTEX
  5
134
  8
Layer_3
  10
319.77026
  20
111.38375
  42
0.38262812
  0
VERTEX
  5
135
  8
Layer_3
  10
319.39429
  20
112.63912
  42
0.29456746
  0
VERTEX
  5
136
  8
Layer_3
  10
317.92944
  20
112.53512
  42
0.19618822
  0
VERTEX
  5
137
  8
Layer_3
  10
317.58032
  20
111.76461
  0
VERTEX
  5
138
  8
Layer_3
  10
318.03198
  20
111.71822
  0
VERTEX
  5
139
  8
Layer_3
  10
318.04517
  20
111.8774
  42
-0.39378845
  0
VERTEX
  5
13a
  8
Layer_3
  10
318.73267
  20
112.436
  42
-0.20673061
  0
VERTEX
  5
13b
  8
Layer_3
  10
319.20367
  20
112.27166
  42
-0.20672974
  0
VERTEX
  5
13c
  8
Layer_3
  10
319.40649
  20
111.81588
  42
-0.18115926
  0
VERTEX
  5
13d
  8
Layer_3
  10
319.07544
  20
111.13522
  42
-0.025841017
  0
VERTEX
  5
13e
  8
Layer_3
  10
318.0813
  20
110.23971
  0
VERTEX
  5
13f
  8
Layer_3
  10
317.94849
  20
110.10885
  42
0.19657093
  0
VERTEX
  5
140
  8
Layer_3
  10
317.49731
  20
109.20602
  0
VERTEX
  5
141
  8
Layer_3
  10
319.86304
  20
109.20602
  0
SEQEND
  0
POLYLINE
  5
143
  8
Layer_3
  62
3
  70
1
  66
1
  10
0
  20
0
  30
0
  0
VERTEX
  5
143
  8
Layer_3
  10
324.84204
  20
112.78512
  0
VERTEX
  5
144
  8
Layer_3
  10
324.35864
  20
112.78512
  42
0.0089152504
  0
VERTEX
  5
145
  8
Layer_3
  10
323.28882
  20
109.89205
  0
VERTEX
  5
146
  8
Layer_3
  10
323.19897
  20
109.59908
  0
VERTEX
  5
147
  8
Layer_3
  10
323.11401
  20
109.88229
  42
0.0077613649
  0
VERTEX
  5
148
  8
Layer_3
  10
322.08081
  20
112.78512
  0
VERTEX
  5
149
  8
Layer_3
  10
321.56812
  20
112.78512
  0
VERTEX
  5
14a
  8
Layer_3
  10
322.95483
  20
109.20602
  0
VERTEX
  5
14b
  8
Layer_3
  10
323.44067
  20
109.20602
  0
SEQEND
  0
POLYLINE
  5
14d
  8
Layer_3
  62
3
  70
1
  66
1
  10
0
  20
0
  30
0
  0
VERTEX
  5
14d
  8
Layer_3
  10
326.87964
  20
109.22115
  42
0.33151788
  0
VERTEX
  5
14e
  8
Layer_3
  10
328.14575
  20
110.29244
  42
0.2056386
  0
VERTEX
  5
14f
  8
Layer_3
  10
327.92456
  20
112.20504
  42
0.25969921
  0
VERTEX
  5
150
  8
Layer_3
  10
326.71118
  20
112.7817
  42
0.0087078459
  0
VERTEX
  5
151
  8
Layer_3
  10
325.28198
  20
112.78512
  0
VERTEX
  5
152
  8
Layer_3
  10
325.28198
  20
109.20602
  0
VERTEX
  5
153
  8
Layer_3
  10
326.57349
  20
109.20602
  0
SEQEND
  0
POLYLINE
  5
155
  8
Layer_3
  62
3
  70
1
  66
1
  10
0
  20
0
  30
0
  0
VERTEX
  5
155
  8
Layer_3
  10
325.75562
  20
109.62838
  0
VERTEX
  5
156
  8
Layer_3
  10
325.75562
  20
112.36275
  42
-0.036178656
  0
VERTEX
  5
157
  8
Layer_3
  10
326.87183
  20
112.34469
  42
-0.29615594
  0
VERTEX
  5
158
  8
Layer_3
  10
327.64868
  20
111.71822
  42
-0.19549049
  0
VERTEX
  5
159
  8
Layer_3
  10
327.54614
  20
110.07711
  42
-0.27089507
  0
VERTEX
  5
15a
  8
Layer_3
  10
326.68726
  20
109.63229
  42
-0.011659173
  0
SEQEND
  0
POLYLINE
  5
15c
  8
Layer_3
  62
3
  70
1
  66
1
  10
0
  20
0
  30
0
  0
VERTEX
  5
15c
  8
Layer_3
  10
266.91199
  20
124.03466
  42
0.33260247
  0
VERTEX
  5
15d
  8
Layer_3
  10
268.33972
  20
125.35107
  42
0.23682881
  0
VERTEX
  5
15e
  8
Layer_3
  10
267.92957
  20
127.20409
  42
0.3861682
  0
VERTEX
  5
15f
  8
Layer_3
  10
265.5741
  20
127.33837
  42
0.22523459
  0
VERTEX
  5
160
  8
Layer_3
  10
264.97156
  20
125.82519
  42
0.26100556
  0
VERTEX
  5
161
  8
Layer_3
  10
265.77966
  20
124.26513
  42
0.16839108
  0
SEQEND
  0
POLYLINE
  5
163
  8
Layer_3
  62
3
  70
1
  66
1
  10
0
  20
0
  30
0
  0
VERTEX
  5
163
  8
Layer_3
  10
263.51746
  20
124.03075
  42
0.35753729
  0
VERTEX
  5
164
  8
Layer_3
  10
264.47205
  20
125.07861
  42
0.28014196
  0
VERTEX
  5
165
  8
Layer_3
  10
264.00964
  20
126.22167
  42
0.38592384
  0
VERTEX
  5
166
  8
Layer_3
  10
262.63855
  20
126.04101
  0
VERTEX
  5
167
  8
Layer_3
  10
262.55505
  20
125.92773
  42
-0.13172796
  0
VERTEX
  5
168
  8
Layer_3
  10
262.74451
  20
126.89208
  42
-0.40419406
  0
VERTEX
  5
169
  8
Layer_3
  10
263.6156
  20
127.26757
  42
-0.26108823
  0
VERTEX
  5
16a
  8
Layer_3
  10
263.98083
  20
126.75048
  0
VERTEX
  5
16b
  8
Layer_3
  10
264.41785
  20
126.78466
  42
0.29805013
  0
VERTEX
  5
16c
  8
Layer_3
  10
263.78601
  20
127.61669
  42
0.30919022
  0
VERTEX
  5
16d
  8
Layer_3
  10
262.50134
  20
127.26562
  42
0.1533134
  0
VERTEX
  5
16e
  8
Layer_3
  10
262.1239
  20
126.00732
  42
0.12338939
  0
VERTEX
  5
16f
  8
Layer_3
  10
262.31287
  20
124.65966
  42
0.32873326
  0
SEQEND
  0
POLYLINE
  5
171
  8
Layer_3
  62
3
  70
1
  66
1
  10
0
  20
0
  30
0
  0
VERTEX
  5
171
  8
Layer_3
  10
256.0697
  20
125.32226
  0
VERTEX
  5
172
  8
Layer_3
  10
256.65564
  20
125.89355
  0
VERTEX
  5
173
  8
Layer_3
  10
257.93005
  20
124.08202
  0
VERTEX
  5
174
  8
Layer_3
  10
258.55505
  20
124.08202
  0
VERTEX
  5
175
  8
Layer_3
  10
256.98767
  20
126.21093
  0
VERTEX
  5
176
  8
Layer_3
  10
258.48914
  20
127.66113
  0
VERTEX
  5
177
  8
Layer_3
  10
257.84705
  20
127.66113
  0
VERTEX
  5
178
  8
Layer_3
  10
256.0697
  20
125.88622
  0
VERTEX
  5
179
  8
Layer_3
  10
256.0697
  20
127.66113
  0
VERTEX
  5
17a
  8
Layer_3
  10
255.59607
  20
127.66113
  0
VERTEX
  5
17b
  8
Layer_3
  10
255.59607
  20
124.08202
  0
VERTEX
  5
17c
  8
Layer_3
  10
256.0697
  20
124.08202
  0
SEQEND
  0
POLYLINE
  5
17e
  8
Layer_3
  62
3
  70
1
  66
1
  10
0
  20
0
  30
0
  0
VERTEX
  5
17e
  8
Layer_3
  10
261.87585
  20
127.66113
  0
VERTEX
  5
17f
  8
Layer_3
  10
261.39246
  20
127.66113
  42
0.0089193727
  0
VERTEX
  5
180
  8
Layer_3
  10
260.32263
  20
124.76806
  0
VERTEX
  5
181
  8
Layer_3
  10
260.23279
  20
124.47509
  0
VERTEX
  5
182
  8
Layer_3
  10
260.14783
  20
124.75829
  42
0.0077613649
  0
VERTEX
  5
183
  8
Layer_3
  10
259.11462
  20
127.66113
  0
VERTEX
  5
184
  8
Layer_3
  10
258.60193
  20
127.66113
  0
VERTEX
  5
185
  8
Layer_3
  10
259.98865
  20
124.08202
  0
VERTEX
  5
186
  8
Layer_3
  10
260.47449
  20
124.08202
  0
SEQEND
  0
POLYLINE
  5
188
  8
Layer_3
  62
3
  70
1
  66
1
  10
0
  20
0
  30
0
  0
VERTEX
  5
188
  8
Layer_3
  10
266.42908
  20
124.4497
  0
VERTEX
  5
189
  8
Layer_3
  10
266.20007
  20
124.51952
  42
-0.26476412
  0
VERTEX
  5
18a
  8
Layer_3
  10
265.48181
  20
125.51171
  42
-0.16044719
  0
VERTEX
  5
18b
  8
Layer_3
  10
265.66394
  20
126.77001
  42
-0.36641642
  0
VERTEX
  5
18c
  8
Layer_3
  10
267.17957
  20
127.21581
  42
-0.25280792
  0
VERTEX
  5
18d
  8
Layer_3
  10
267.86902
  20
126.27831
  42
-0.16805726
  0
VERTEX
  5
18e
  8
Layer_3
  10
267.71179
  20
125.00976
  42
-0.32846039
  0
SEQEND
  0
POLYLINE
  5
190
  8
Layer_3
  62
3
  70
1
  66
1
  10
0
  20
0
  30
0
  0
VERTEX
  5
190
  8
Layer_3
  10
263.25916
  20
124.38915
  0
VERTEX
  5
191
  8
Layer_3
  10
263.16687
  20
124.40966
  42
-0.37053546
  0
VERTEX
  5
192
  8
Layer_3
  10
262.63611
  20
125.40673
  42
-0.20685804
  0
VERTEX
  5
193
  8
Layer_3
  10
262.92908
  20
125.88715
  42
-0.20685835
  0
VERTEX
  5
194
  8
Layer_3
  10
263.47986
  20
126.00243
  42
-0.37319917
  0
VERTEX
  5
195
  8
Layer_3
  10
264.0321
  20
125.21728
  42
-0.29941995
  0
VERTEX
  5
196
  8
Layer_3
  10
263.61218
  20
124.43847
  42
-0.14465791
  0
SEQEND
  0
POLYLINE
  5
198
  8
Layer_3
  62
3
  70
1
  66
1
  10
0
  20
0
  30
0
  0
VERTEX
  5
198
  8
Layer_3
  10
262.66882
  20
118.27978
  42
0.1475325
  0
VERTEX
  5
199
  8
Layer_3
  10
263.95642
  20
118.83007
  0
VERTEX
  5
19a
  8
Layer_3
  10
263.95642
  20
120.1582
  0
VERTEX
  5
19b
  8
Layer_3
  10
262.44031
  20
120.15575
  0
VERTEX
  5
19c
  8
Layer_3
  10
262.44031
  20
119.73583
  0
VERTEX
  5
19d
  8
Layer_3
  10
263.49255
  20
119.73583
  0
VERTEX
  5
19e
  8
Layer_3
  10
263.49255
  20
119.06933
  42
-0.32431384
  0
VERTEX
  5
19f
  8
Layer_3
  10
261.63074
  20
118.94286
  42
-0.22280079
  0
VERTEX
  5
1a0
  8
Layer_3
  10
261.14441
  20
119.90429
  42
-0.20896636
  0
VERTEX
  5
1a1
  8
Layer_3
  10
261.49695
  20
121.208
  42
-0.3713068
  0
VERTEX
  5
1a2
  8
Layer_3
  10
263.20935
  20
121.29687
  42
-0.12354218
  0
VERTEX
  5
1a3
  8
Layer_3
  10
263.47546
  20
120.79296
  0
VERTEX
  5
1a4
  8
Layer_3
  10
263.90271
  20
120.91015
  42
0.3294645
  0
VERTEX
  5
1a5
  8
Layer_3
  10
262.8075
  20
121.94091
  42
0.202346
  0
VERTEX
  5
1a6
  8
Layer_3
  10
261.30017
  20
121.62792
  42
0.22356696
  0
VERTEX
  5
1a7
  8
Layer_3
  10
260.64587
  20
120.10448
  42
0.2422302
  0
VERTEX
  5
1a8
  8
Layer_3
  10
261.31384
  20
118.62255
  42
0.1785777
  0
SEQEND
  0
POLYLINE
  5
1aa
  8
Layer_3
  62
3
  70
1
  66
1
  10
0
  20
0
  30
0
  0
VERTEX
  5
1aa
  8
Layer_3
  10
258.76306
  20
118.34716
  42
0.26203651
  0
VERTEX
  5
1ab
  8
Layer_3
  10
259.85632
  20
119.00732
  42
0.25531395
  0
VERTEX
  5
1ac
  8
Layer_3
  10
259.80798
  20
121.33105
  42
0.25980882
  0
VERTEX
  5
1ad
  8
Layer_3
  10
258.59509
  20
121.90771
  42
0.0086859656
  0
VERTEX
  5
1ae
  8
Layer_3
  10
257.16541
  20
121.91113
  0
VERTEX
  5
1af
  8
Layer_3
  10
257.16541
  20
118.33202
  0
VERTEX
  5
1b0
  8
Layer_3
  10
258.45691
  20
118.33202
  0
SEQEND
  0
POLYLINE
  5
1b2
  8
Layer_3
  62
3
  70
1
  66
1
  10
0
  20
0
  30
0
  0
VERTEX
  5
1b2
  8
Layer_3
  10
265.7821
  20
118.27782
  42
0.3521299
  0
VERTEX
  5
1b3
  8
Layer_3
  10
266.84265
  20
119.31054
  42
0.24603023
  0
VERTEX
  5
1b4
  8
Layer_3
  10
266.53796
  20
120.38036
  42
0.37141046
  0
VERTEX
  5
1b5
  8
Layer_3
  10
265.07068
  20
120.48046
  0
VERTEX
  5
1b6
  8
Layer_3
  10
265.26355
  20
121.44238
  0
VERTEX
  5
1b7
  8
Layer_3
  10
266.69177
  20
121.44238
  0
VERTEX
  5
1b8
  8
Layer_3
  10
266.69177
  20
121.8623
  0
VERTEX
  5
1b9
  8
Layer_3
  10
264.91199
  20
121.8623
  0
VERTEX
  5
1ba
  8
Layer_3
  10
264.56531
  20
120.02392
  0
VERTEX
  5
1bb
  8
Layer_3
  10
264.97791
  20
119.97021
  0
VERTEX
  5
1bc
  8
Layer_3
  10
265.09412
  20
120.10986
  42
-0.39267712
  0
VERTEX
  5
1bd
  8
Layer_3
  10
266.18298
  20
120.0996
  42
-0.35645017
  0
VERTEX
  5
1be
  8
Layer_3
  10
266.17419
  20
118.87157
  42
-0.35663341
  0
VERTEX
  5
1bf
  8
Layer_3
  10
265.28503
  20
118.72753
  42
-0.22459571
  0
VERTEX
  5
1c0
  8
Layer_3
  10
264.94861
  20
119.30859
  0
VERTEX
  5
1c1
  8
Layer_3
  10
264.48718
  20
119.26952
  42
0.30353184
  0
VERTEX
  5
1c2
  8
Layer_3
  10
265.19373
  20
118.33935
  42
0.10140706
  0
SEQEND
  0
POLYLINE
  5
1c4
  8
Layer_3
  62
3
  70
1
  66
1
  10
0
  20
0
  30
0
  0
VERTEX
  5
1c4
  8
Layer_3
  10
257.63904
  20
118.75439
  0
VERTEX
  5
1c5
  8
Layer_3
  10
257.63904
  20
121.48876
  42
-0.037389943
  0
VERTEX
  5
1c6
  8
Layer_3
  10
258.75574
  20
121.47021
  42
-0.29662804
  0
VERTEX
  5
1c7
  8
Layer_3
  10
259.53259
  20
120.84423
  42
-0.19532935
  0
VERTEX
  5
1c8
  8
Layer_3
  10
259.42957
  20
119.20312
  42
-0.27120248
  0
VERTEX
  5
1c9
  8
Layer_3
  10
258.57068
  20
118.75829
  42
-0.011664305
  0
SEQEND
  0
POLYLINE
  5
1cb
  8
Layer_3
  62
3
  70
1
  66
1
  10
0
  20
0
  30
0
  0
VERTEX
  5
1cb
  8
Layer_3
  10
340.04956
  20
123.92005
  0
VERTEX
  5
1cc
  8
Layer_3
  10
338.99634
  20
123.92005
  42
-0.077928983
  0
VERTEX
  5
1cd
  8
Layer_3
  10
339.21753
  20
124.16615
  0
VERTEX
  5
1ce
  8
Layer_3
  10
339.54468
  20
124.44691
  42
0.15285266
  0
VERTEX
  5
1cf
  8
Layer_3
  10
340.03345
  20
125.09876
  42
0.32475162
  0
VERTEX
  5
1d0
  8
Layer_3
  10
339.76831
  20
125.72669
  42
0.35224596
  0
VERTEX
  5
1d1
  8
Layer_3
  10
338.80835
  20
125.57533
  42
0.1320826
  0
VERTEX
  5
1d2
  8
Layer_3
  10
338.67993
  20
125.20179
  0
VERTEX
  5
1d3
  8
Layer_3
  10
338.95093
  20
125.17396
  0
VERTEX
  5
1d4
  8
Layer_3
  10
338.95874
  20
125.26966
  42
-0.39284765
  0
VERTEX
  5
1d5
  8
Layer_3
  10
339.37134
  20
125.60462
  42
-0.20691074
  0
VERTEX
  5
1d6
  8
Layer_3
  10
339.65402
  20
125.50611
  42
-0.20691072
  0
VERTEX
  5
1d7
  8
Layer_3
  10
339.77563
  20
125.23255
  42
-0.20564263
  0
VERTEX
  5
1d8
  8
Layer_3
  10
339.4729
  20
124.7179
  42
-0.0034007739
  0
VERTEX
  5
1d9
  8
Layer_3
  10
338.98071
  20
124.28724
  0
VERTEX
  5
1da
  8
Layer_3
  10
338.83472
  20
124.13538
  42
0.19053765
  0
VERTEX
  5
1db
  8
Layer_3
  10
338.63013
  20
123.66663
  0
VERTEX
  5
1dc
  8
Layer_3
  10
340.04956
  20
123.66663
  0
SEQEND
  0
POLYLINE
  5
1de
  8
Layer_3
  62
3
  70
1
  66
1
  10
0
  20
0
  30
0
  0
VERTEX
  5
1de
  8
Layer_3
  10
341.99683
  20
123.63783
  42
0.32864101
  0
VERTEX
  5
1df
  8
Layer_3
  10
342.54077
  20
124.24085
  42
0.13038859
  0
VERTEX
  5
1e0
  8
Layer_3
  10
342.47876
  20
125.40736
  42
0.37532807
  0
VERTEX
  5
1e1
  8
Layer_3
  10
341.77222
  20
125.81507
  42
0.32879348
  0
VERTEX
  5
1e2
  8
Layer_3
  10
341.22827
  20
125.21351
  42
0.13184171
  0
VERTEX
  5
1e3
  8
Layer_3
  10
341.30347
  20
124.00794
  42
0.35886716
  0
SEQEND
  0
POLYLINE
  5
1e5
  8
Layer_3
  62
3
  70
1
  66
1
  10
0
  20
0
  30
0
  0
VERTEX
  5
1e5
  8
Layer_3
  10
344.53784
  20
123.64075
  42
0.25701478
  0
VERTEX
  5
1e6
  8
Layer_3
  10
345.04938
  20
124.01516
  42
0.25701415
  0
VERTEX
  5
1e7
  8
Layer_3
  10
345.0061
  20
124.64759
  42
0.18030942
  0
VERTEX
  5
1e8
  8
Layer_3
  10
344.71021
  20
124.82972
  0
VERTEX
  5
1e9
  8
Layer_3
  10
344.83911
  20
124.90882
  42
0.37445844
  0
VERTEX
  5
1ea
  8
Layer_3
  10
344.92798
  20
125.54163
  42
0.37669149
  0
VERTEX
  5
1eb
  8
Layer_3
  10
344.04272
  20
125.74085
  42
0.22735834
  0
VERTEX
  5
1ec
  8
Layer_3
  10
343.73169
  20
125.26624
  0
VERTEX
  5
1ed
  8
Layer_3
  10
343.99536
  20
125.21937
  0
VERTEX
  5
1ee
  8
Layer_3
  10
344.01489
  20
125.31019
  42
-0.19786067
  0
VERTEX
  5
1ef
  8
Layer_3
  10
344.17624
  20
125.54694
  42
-0.19785773
  0
VERTEX
  5
1f0
  8
Layer_3
  10
344.45776
  20
125.60023
  42
-0.37840269
  0
VERTEX
  5
1f1
  8
Layer_3
  10
344.73511
  20
125.27064
  42
-0.39776574
  0
VERTEX
  5
1f2
  8
Layer_3
  10
344.37964
  20
124.91712
  42
-0.067027874
  0
VERTEX
  5
1f3
  8
Layer_3
  10
344.25464
  20
124.91468
  0
VERTEX
  5
1f4
  8
Layer_3
  10
344.22534
  20
124.68324
  0
VERTEX
  5
1f5
  8
Layer_3
  10
344.32788
  20
124.70521
  42
-0.20317532
  0
VERTEX
  5
1f6
  8
Layer_3
  10
344.64484
  20
124.64906
  42
-0.2031753
  0
VERTEX
  5
1f7
  8
Layer_3
  10
344.82446
  20
124.38197
  42
-0.1995623
  0
VERTEX
  5
1f8
  8
Layer_3
  10
344.76126
  20
124.04659
  42
-0.19956299
  0
VERTEX
  5
1f9
  8
Layer_3
  10
344.47876
  20
123.85511
  42
-0.19869435
  0
VERTEX
  5
1fa
  8
Layer_3
  10
344.17285
  20
123.90936
  42
-0.19869588
  0
VERTEX
  5
1fb
  8
Layer_3
  10
343.99585
  20
124.16468
  0
VERTEX
  5
1fc
  8
Layer_3
  10
343.96899
  20
124.26868
  0
VERTEX
  5
1fd
  8
Layer_3
  10
343.70532
  20
124.23353
  42
0.29589398
  0
VERTEX
  5
1fe
  8
Layer_3
  10
344.12915
  20
123.67054
  42
0.12252741
  0
SEQEND
  0
POLYLINE
  5
200
  8
Layer_3
  62
3
  70
1
  66
1
  10
0
  20
0
  30
0
  0
VERTEX
  5
200
  8
Layer_3
  10
334.48706
  20
125.81409
  0
VERTEX
  5
201
  8
Layer_3
  10
334.19702
  20
125.81409
  42
0.0084197704
  0
VERTEX
  5
202
  8
Layer_3
  10
333.55493
  20
124.07825
  0
VERTEX
  5
203
  8
Layer_3
  10
333.50122
  20
123.90247
  0
VERTEX
  5
204
  8
Layer_3
  10
333.45044
  20
124.0724
  42
0.0072868929
  0
VERTEX
  5
205
  8
Layer_3
  10
332.83032
  20
125.81409
  0
VERTEX
  5
206
  8
Layer_3
  10
332.52271
  20
125.81409
  0
VERTEX
  5
207
  8
Layer_3
  10
333.35474
  20
123.66663
  0
VERTEX
  5
208
  8
Layer_3
  10
333.64624
  20
123.66663
  0
SEQEND
  0
POLYLINE
  5
20a
  8
Layer_3
  62
3
  70
1
  66
1
  10
0
  20
0
  30
0
  0
VERTEX
  5
20a
  8
Layer_3
  10
341.79712
  20
123.85755
  0
VERTEX
  5
20b
  8
Layer_3
  10
341.71704
  20
123.89075
  42
-0.23826234
  0
VERTEX
  5
20c
  8
Layer_3
  10
341.48608
  20
124.28529
  42
-0.10864441
  0
VERTEX
  5
20d
  8
Layer_3
  10
341.53149
  20
125.33167
  42
-0.19697381
  0
VERTEX
  5
20e
  8
Layer_3
  10
341.69672
  20
125.55312
  42
-0.19697313
  0
VERTEX
  5
20f
  8
Layer_3
  10
341.96997
  20
125.59388
  42
-0.30576742
  0
VERTEX
  5
210
  8
Layer_3
  10
342.28247
  20
125.16712
  42
-0.10392426
  0
VERTEX
  5
211
  8
Layer_3
  10
342.2439
  20
124.13245
  42
-0.40207945
  0
SEQEND
  0
POLYLINE
  5
213
  8
Layer_3
  62
3
  70
1
  66
1
  10
0
  20
0
  30
0
  0
VERTEX
  5
213
  8
Layer_3
  10
335.32007
  20
123.63978
  0
VERTEX
  5
214
  8
Layer_3
  10
335.43726
  20
123.66419
  42
0.27022491
  0
VERTEX
  5
215
  8
Layer_3
  10
335.87476
  20
124.13392
  0
VERTEX
  5
216
  8
Layer_3
  10
335.60229
  20
124.16761
  0
VERTEX
  5
217
  8
Layer_3
  10
335.53149
  20
124.02357
  42
-0.40798657
  0
VERTEX
  5
218
  8
Layer_3
  10
334.93628
  20
123.92493
  42
-0.23481623
  0
VERTEX
  5
219
  8
Layer_3
  10
334.72192
  20
124.37708
  0
VERTEX
  5
21a
  8
Layer_3
  10
335.88208
  20
124.37708
  42
0.26342801
  0
VERTEX
  5
21b
  8
Layer_3
  10
335.57983
  20
125.13783
  42
0.3601101
  0
VERTEX
  5
21c
  8
Layer_3
  10
334.65161
  20
125.04066
  42
0.34214915
  0
VERTEX
  5
21d
  8
Layer_3
  10
334.64917
  20
123.84193
  42
0.23810286
  0
SEQEND
  0
POLYLINE
  5
21f
  8
Layer_3
  62
3
  70
1
  66
1
  10
0
  20
0
  30
0
  0
VERTEX
  5
21f
  8
Layer_3
  10
336.47778
  20
124.48109
  42
-0.2281643
  0
VERTEX
  5
220
  8
Layer_3
  10
336.61987
  20
124.93324
  42
-0.31336517
  0
VERTEX
  5
221
  8
Layer_3
  10
336.96851
  20
124.92786
  0
VERTEX
  5
222
  8
Layer_3
  10
337.05933
  20
125.17249
  42
0.31068315
  0
VERTEX
  5
223
  8
Layer_3
  10
336.61938
  20
125.20472
  42
0.10800987
  0
VERTEX
  5
224
  8
Layer_3
  10
336.45142
  20
124.98646
  0
VERTEX
  5
225
  8
Layer_3
  10
336.45142
  20
125.2223
  0
VERTEX
  5
226
  8
Layer_3
  10
336.21411
  20
125.2223
  0
VERTEX
  5
227
  8
Layer_3
  10
336.21411
  20
123.66663
  0
VERTEX
  5
228
  8
Layer_3
  10
336.47778
  20
123.66663
  0
SEQEND
  0
POLYLINE
  5
22a
  8
Layer_3
  62
3
  70
1
  66
1
  10
0
  20
0
  30
0
  0
VERTEX
  5
22a
  8
Layer_3
  10
334.73657
  20
124.59388
  42
-0.20008879
  0
VERTEX
  5
22b
  8
Layer_3
  10
334.86444
  20
124.90968
  42
-0.20008991
  0
VERTEX
  5
22c
  8
Layer_3
  10
335.17896
  20
125.04066
  42
-0.32986368
  0
VERTEX
  5
22d
  8
Layer_3
  10
335.57153
  20
124.76575
  0
VERTEX
  5
22e
  8
Layer_3
  10
335.60522
  20
124.59388
  0
SEQEND
  0
POLYLINE
  5
230
  8
Layer_3
  62
3
  70
1
  66
1
  10
0
  20
0
  30
0
  0
VERTEX
  5
230
  8
Layer_3
  10
337.43237
  20
123.96693
  0
VERTEX
  5
231
  8
Layer_3
  10
337.13208
  20
123.96693
  0
VERTEX
  5
232
  8
Layer_3
  10
337.13208
  20
123.66663
  0
VERTEX
  5
233
  8
Layer_3
  10
337.43237
  20
123.66663
  0
SEQEND
  0
POLYLINE
  5
235
  8
Layer_3
  62
3
  70
1
  66
1
  10
0
  20
0
  30
0
  0
VERTEX
  5
235
  8
Layer_3
  10
340.79224
  20
123.96693
  0
VERTEX
  5
236
  8
Layer_3
  10
340.49194
  20
123.96693
  0
VERTEX
  5
237
  8
Layer_3
  10
340.49194
  20
123.66663
  0
VERTEX
  5
238
  8
Layer_3
  10
340.79224
  20
123.66663
  0
SEQEND
  0
POLYLINE
  5
23a
  8
Layer_3
  62
3
  70
1
  66
1
  10
0
  20
0
  30
0
  0
VERTEX
  5
23a
  8
Layer_3
  10
343.31226
  20
123.96693
  0
VERTEX
  5
23b
  8
Layer_3
  10
343.01196
  20
123.96693
  0
VERTEX
  5
23c
  8
Layer_3
  10
343.01196
  20
123.66663
  0
VERTEX
  5
23d
  8
Layer_3
  10
343.31226
  20
123.66663
  0
SEQEND
  0
ENDSEC
  0
EOF
